<svg xmlns="http://www.w3.org/2000/svg" viewBox="0 0 685.46 554.31"><defs><style>.cls-1{fill:#fff;}</style></defs><g id="Layer_2" data-name="Layer 2"><g id="Layer_1-2" data-name="Layer 1"><path class="cls-1" d="M63.55,189.87c-.11.59-.23,1.18-.34,1.78q24.3,12.82,48.84,24.38l.42.15-8,1q-4.17,20.66-8.33,41.66-10.78,1.79-21.51,3.67,4.08-21.3,8.19-42.22-12.91,1.67-25.74,3.44-6.49,34.41-13,69.9c24.12-5.5,48.48-10.28,73-14.6q8.11-40.12,16.27-79.08c.1-.48.21-1,.31-1.45.05-.28.11-.56.17-.83q-21.27-10.17-42.39-21.22,3.38-16.89,6.77-33.55L120,141.81q-2.81,13.41-5.59,27l26.05-1.93q5.29-25,10.59-49.52c-24.7.92-49.27,1.53-73.66,2Q70.43,154.1,63.55,189.87Z"/><path class="cls-1" d="M159.8,139.7q11.94-.69,23.92-1.44-14.53,65.93-29,134.46,13.08-2.07,26.22-4,14.54-67.29,29.1-132.2,12.12-.87,24.28-1.85,2.5-11.05,5-22.07c-24.92,1.84-49.78,3.2-74.53,4.23Q162.28,128.21,159.8,139.7Z"/><path class="cls-1" d="M240,178.6q-9.44,41.79-18.88,84.28c24.94-3.5,50-6.84,75.05-10.2q4.45-19.55,8.9-39-11.83-4.54-23.66-9.19c-.15.65-.3,1.29-.44,1.93q-3,13.38-6.1,26.81c-.08.32-.15.65-.22,1L252.58,237q5.89-26.07,11.77-51.94,12,5,24,9.78,2.72-11.93,5.44-23.82-12-4.85-24-9.86,3.46-15.21,6.93-30.37,11-1.09,22-2.33-2.77,12.15-5.56,24.33,13.25-1.5,26.5-3.16,5.27-23.07,10.52-46.14-37.5,4.8-75,7.82-4.51,19.81-9,39.74c-2-.82-4-1.64-6-2.48q-2.73,12-5.44,24.09,6.08,2.64,12.18,5.22Z"/><path class="cls-1" d="M331.07,168.06q-9.39,41.2-18.82,82.47l26.56-3.59q8.34-36.52,16.64-73.11,21.68,8.17,43.33,16.08Q410,139.7,421.18,88.78q-37.41,7.39-74.93,12.56-4.49,19.77-9,39.51l-6-2.18q-2.72,11.88-5.42,23.76,6.12,2.37,12.24,4.7C335.72,167.45,333.4,167.76,331.07,168.06Zm36.7-48.67q11-1.68,22.05-3.53-4.6,20.65-9.24,41.23-9.84-3.6-19.69-7.28Q364.34,134.62,367.77,119.39Z"/><path class="cls-1" d="M509.59,67.74q-13.09,3.67-26.24,7-7,33.36-14,66.12-9.78-3.24-19.58-6.51,5.82-27,11.64-54.27-13.17,3.07-26.36,5.84c-11.16,51.41-22.37,102-33.62,152.22q13.26-1.92,26.49-3.92,8.25-37.29,16.48-75.08L464,166l6.84,2.31.42.13c-2.71.53-5.41,1-8.12,1.56Q451,226.69,438.72,282.07l-7.47-2.91q-2.67,12.09-5.36,24.11,7.29,2.87,14.58,5.79l-8,1q-14.11,63.42-28.33,125.78,13.32-1.26,26.59-2.29Q444,375.18,457,315.74l4.74,2q2.67-12.18,5.33-24.42l-4.74-1.91C478.18,218.84,493.92,144.65,509.59,67.74Z"/><path class="cls-1" d="M492.28,224q37.25-6.28,74.09-13.49,4.27-21.76,8.57-43.89-11.61-4-23.26-7.81-3.27,16.44-6.53,32.7-10.86,2.25-21.77,4.4,5.7-27.78,11.38-56.06,11.88,3.82,23.7,7.71,2.63-13.35,5.25-26.83-11.82-3.61-23.68-7.17,3.35-16.83,6.69-33.84,10.88-3.28,21.71-6.79-2.68,14-5.37,27.84,13-3.84,26-8,5.09-27,10.16-54.61-36.66,14.05-73.74,25-4.38,21.83-8.76,43.35l-6-1.62q-2.64,12.89-5.29,25.69l12.12,3.84-6.9,1.63Q501.48,180.61,492.28,224Z"/><path class="cls-1" d="M659.93,12.41q-2.55,15-5.08,29.81c-14-3.22-28-6.32-42.06-9.39C601.87,93.23,591,151.4,580,207.78q13-2.62,25.86-5.38,12.35-65.68,24.69-135,13.09,3.33,26.1,6.83c-2.62,1-5.23,2-7.86,3Q638.06,139,627.32,197.7q12.84-2.88,25.59-5.92c10.84-61.29,21.68-125,32.55-191.78Q672.73,6.44,659.93,12.41Z"/><path class="cls-1" d="M74.4,318.39l-.59-.3Q57.83,312,42,305.56c-.16.86-.31,1.72-.47,2.57C27.51,385.83,13.64,467.58,0,554.31q12.5-7.69,25.11-14.69C36.46,471.19,47.93,405.84,59.5,343.06q4.68,1.79,9.38,3.53l.22-.06Q75,342,80.86,337.62C69.22,398.7,57.66,462.13,46.21,528.4q12.72-6.46,25.53-12.32C86,437.17,100.42,362.2,114.91,290.2c-13.38,8.79-26.71,18-40,27.63Z"/><path class="cls-1" d="M138.93,449.69l-9.57-2.47c0-.07,0-.14,0-.22l-.27.29q-6,4.66-11.89,9.47c11.68-59.71,23.43-117.35,35.21-173.41q-13.08,2.19-26.1,4.54c-14.55,71.25-29,145.32-43.37,223.16,13.35-12.77,26.77-24.79,40.27-36.2l.73-.46.41.06q16,4.71,32,9.57c14.68-71.82,29.42-140.94,44.17-208.29q-13.17,2-26.3,4.06C162.48,334.88,150.68,391.36,138.93,449.69Z"/><path class="cls-1" d="M245.32,269.25q-13.24,1.86-26.45,3.78-4.5,20.31-9,40.83l-6-2.07q-2.72,12.45-5.44,25l6,2.18a1.18,1.18,0,0,0,0,.2l7.22,2.52-7.87,1.47q-14.49,66-29,134.7,13.14-3.89,26.35-7.37,13.42-62.7,26.86-123.34l6.22,2.13q2.73-12.28,5.46-24.51l-6.22-2.21Q239.36,295.76,245.32,269.25Z"/><path class="cls-1" d="M309,283.05q-21.71-8.25-43.35-16.62c-14.74,65.1-29.51,131.12-44.28,198.92q13.24-3.21,26.53-6.05c12-54.06,24-107.18,35.93-159.81l27,10.12-8.16,1.17c-10.85,47.6-21.73,95.49-32.62,144q13.31-2.58,26.64-4.86c14.78-65.11,29.51-129.41,44.18-193.72l-26.57,3.61Z"/><path class="cls-1" d="M375.53,332.45q6.15,2.39,12.28,4.8l-7,.87q-14.19,62.44-28.48,124.66-11,1.41-22,3c14.75-64.48,29.44-128.54,44.05-193q11.07-1.51,22.13-3Q393.74,282,391,294.27l26.31-3.46q5.22-23.34,10.43-46.84-37.38,5.5-74.94,10.6c-18,78.91-36,157.61-54.18,237.55q37.68-6.69,75.43-10.7Q389.62,413,405.08,344.13l6.86,2.77q2.7-12,5.38-23.94-18.18-7.29-36.38-14.31Q378.24,320.56,375.53,332.45Z"/><path class="cls-1" d="M450,432.15q13.26-.87,26.46-1.54,13.09-59.49,26.12-120.67,9.78,4.28,19.51,8.71l6.77,3.08.42.16-8,.82Q509.81,377,498.37,429.65q13.15-.5,26.25-.79Q537.79,367,550.88,302.63q-5.61-2.61-11.22-5.16,6.95-4,13.89-8,6.86-33.89,13.69-68.58-36.79,6.9-74.07,12.93C478.84,301.51,464.44,367.36,450,432.15Zm64.61-179.33q10.92-1.66,21.8-3.39-4.5,22-9,43.72-9.74-4.29-19.49-8.42Q511.22,268.86,514.56,252.82Z"/><path class="cls-1" d="M535.33,428.66q13.06-.2,26-.2,12.89-62.59,25.7-128,9.61,4.71,19.19,9.65c2.22,1.14,4.43,2.29,6.65,3.45l.41.18-7.9.74Q594.23,372.81,583,428.6q12.93.18,25.77.56c14-71.7,28-146.47,42-225.28q-36.16,8-72.91,15C563.73,291.49,549.56,361.12,535.33,428.66Zm63.6-189.6q10.76-1.87,21.46-3.81-4.44,23.89-8.88,47.33-9.57-4.71-19.17-9.19Q595.64,256.35,598.93,239.06Z"/></g></g></svg>